<?xml version="1.0" encoding="UTF-8"?>
<svg width="32" height="32" viewBox="0 0 32 32" xmlns="http://www.w3.org/2000/svg">
  <path d="M22 8c0 1.1-.9 2-2 2s-2-.9-2-2 .9-2 2-2 2 .9 2 2zm6 12c-1.7-1.7-3.9-2.7-6.3-2.9.4-.7.6-1.5.7-2.3.8-.6 1.3-1.6 1.3-2.7 0-1.9-1.6-3.5-3.5-3.5-.8 0-1.5.3-2.1.7-1.9-1.9-4.5-3.1-7.4-3.1-5.8 0-10.5 4.7-10.5 10.5S4.9 27.2 10.7 27.2c3.5 0 6.7-1.8 8.6-4.5 2.1.5 4 1.9 5.2 3.7.4.6 1 .9 1.7.9.4 0 .8-.1 1.2-.4.9-.6 1.2-1.9.6-2.8-1.3-2-3.1-3.6-5.2-4.5.4-.9.7-1.9.8-3 1.9.2 3.7 1 5.1 2.4.4.4.9.6 1.4.6s1-.2 1.4-.6c.8-.8.8-2 0-2.8zM10.7 23.2c-3.6 0-6.5-2.9-6.5-6.5s2.9-6.5 6.5-6.5c2.6 0 4.9 1.6 5.9 3.8-.7.8-1.2 1.8-1.3 2.9-1.9.2-3.7 1-5.1 2.4-.8.8-.8 2 0 2.8.4.4.9.6 1.4.6s1-.2 1.4-.6c1.4-1.4 3.2-2.2 5.1-2.4.2 1.1.7 2.1 1.3 2.9-1 .9-2.3 1.6-3.7 1.6z" fill="#333"/>
</svg>
